<mxfile host="Electron" agent="Mozilla/5.0 (Windows NT 10.0; Win64; x64) AppleWebKit/537.36 (KHTML, like Gecko) draw.io/24.7.17 Chrome/128.0.6613.36 Electron/32.0.1 Safari/537.36" version="24.7.17">
  <diagram name="Página-1" id="JO-Kbz_GNz-LB_rPfuFE">
    <mxGraphModel dx="988" dy="573" grid="1" gridSize="10" guides="1" tooltips="1" connect="1" arrows="1" fold="1" page="1" pageScale="1" pageWidth="1920" pageHeight="1200" background="none" math="0" shadow="1">
      <root>
        <mxCell id="0" />
        <mxCell id="1" parent="0" />
        <mxCell id="5EynptWEYeTZD6q-KqAJ-1" value="SUMINISTRADORES" style="whiteSpace=wrap;html=1;align=center;shadow=0;flipH=0;flipV=0;" parent="1" vertex="1">
          <mxGeometry x="40" y="120" width="150" height="40" as="geometry" />
        </mxCell>
        <mxCell id="5EynptWEYeTZD6q-KqAJ-4" value="2, M" style="edgeStyle=orthogonalEdgeStyle;rounded=0;orthogonalLoop=1;jettySize=auto;html=1;exitX=0;exitY=0.5;exitDx=0;exitDy=0;entryX=1;entryY=0.5;entryDx=0;entryDy=0;verticalAlign=bottom;labelBackgroundColor=none;fontColor=default;textShadow=1;endArrow=none;endFill=0;shadow=0;" parent="1" source="5EynptWEYeTZD6q-KqAJ-3" target="5EynptWEYeTZD6q-KqAJ-1" edge="1">
          <mxGeometry relative="1" as="geometry" />
        </mxCell>
        <mxCell id="5EynptWEYeTZD6q-KqAJ-5" value="1, M" style="edgeStyle=orthogonalEdgeStyle;shape=connector;rounded=0;orthogonalLoop=1;jettySize=auto;html=1;exitX=1;exitY=0.5;exitDx=0;exitDy=0;strokeColor=default;align=center;verticalAlign=bottom;fontFamily=Helvetica;fontSize=11;fontColor=default;labelBackgroundColor=none;endArrow=none;endFill=0;shadow=0;entryX=0;entryY=0.5;entryDx=0;entryDy=0;" parent="1" source="5EynptWEYeTZD6q-KqAJ-3" target="5EynptWEYeTZD6q-KqAJ-2" edge="1">
          <mxGeometry relative="1" as="geometry">
            <mxPoint x="540" y="100" as="targetPoint" />
          </mxGeometry>
        </mxCell>
        <mxCell id="5EynptWEYeTZD6q-KqAJ-3" value="Suministrar" style="shape=rhombus;perimeter=rhombusPerimeter;whiteSpace=wrap;html=1;align=center;shadow=0;flipH=0;flipV=0;" parent="1" vertex="1">
          <mxGeometry x="270" y="110" width="120" height="60" as="geometry" />
        </mxCell>
        <mxCell id="5EynptWEYeTZD6q-KqAJ-2" value="SUPERMERCADOS" style="whiteSpace=wrap;html=1;align=center;shadow=0;flipH=0;flipV=0;" parent="1" vertex="1">
          <mxGeometry x="470" y="120" width="140" height="40" as="geometry" />
        </mxCell>
        <mxCell id="GQsO0ul9ZgqGR5JIg6i9-3" value="Dado un registro de un supermercado como mínimo se surte de 1 suministrador" style="text;html=1;align=center;verticalAlign=middle;whiteSpace=wrap;rounded=0;" parent="1" vertex="1">
          <mxGeometry x="20" y="150" width="190" height="90" as="geometry" />
        </mxCell>
        <mxCell id="GQsO0ul9ZgqGR5JIg6i9-4" value="Cada suministrador puede surtir a varios supermercados" style="text;html=1;align=center;verticalAlign=middle;whiteSpace=wrap;rounded=0;" parent="1" vertex="1">
          <mxGeometry x="30" y="210" width="170" height="70" as="geometry" />
        </mxCell>
        <mxCell id="GQsO0ul9ZgqGR5JIg6i9-5" value="como mínimo 1, como máximo muchos" style="text;html=1;align=center;verticalAlign=middle;whiteSpace=wrap;rounded=0;" parent="1" vertex="1">
          <mxGeometry x="355" y="160" width="140" height="50" as="geometry" />
        </mxCell>
        <mxCell id="GQsO0ul9ZgqGR5JIg6i9-7" value="relación muchos a muchos y obligatoria" style="text;html=1;align=left;verticalAlign=middle;whiteSpace=wrap;rounded=0;" parent="1" vertex="1">
          <mxGeometry x="360" y="80" width="130" height="30" as="geometry" />
        </mxCell>
        <mxCell id="GQsO0ul9ZgqGR5JIg6i9-8" value="&lt;b&gt;M : M&lt;/b&gt;" style="text;html=1;align=center;verticalAlign=middle;whiteSpace=wrap;rounded=0;" parent="1" vertex="1">
          <mxGeometry x="300" y="80" width="60" height="30" as="geometry" />
        </mxCell>
        <mxCell id="O3S8YqVi3xzq-e0ClRUe-1" value="&lt;u&gt;codSuminist&lt;/u&gt;" style="ellipse;whiteSpace=wrap;html=1;align=center;" vertex="1" parent="1">
          <mxGeometry x="65" y="40" width="100" height="40" as="geometry" />
        </mxCell>
        <mxCell id="O3S8YqVi3xzq-e0ClRUe-2" value="&lt;u&gt;codSupermcd&lt;/u&gt;" style="ellipse;whiteSpace=wrap;html=1;align=center;" vertex="1" parent="1">
          <mxGeometry x="490" y="40" width="100" height="40" as="geometry" />
        </mxCell>
        <mxCell id="O3S8YqVi3xzq-e0ClRUe-3" value="" style="endArrow=none;html=1;rounded=0;exitX=0.5;exitY=0;exitDx=0;exitDy=0;entryX=0.5;entryY=1;entryDx=0;entryDy=0;" edge="1" parent="1" source="5EynptWEYeTZD6q-KqAJ-2" target="O3S8YqVi3xzq-e0ClRUe-2">
          <mxGeometry width="50" height="50" relative="1" as="geometry">
            <mxPoint x="420" y="170" as="sourcePoint" />
            <mxPoint x="470" y="120" as="targetPoint" />
          </mxGeometry>
        </mxCell>
        <mxCell id="O3S8YqVi3xzq-e0ClRUe-4" value="" style="endArrow=none;html=1;rounded=0;exitX=0.5;exitY=0;exitDx=0;exitDy=0;entryX=0.5;entryY=1;entryDx=0;entryDy=0;" edge="1" parent="1" source="5EynptWEYeTZD6q-KqAJ-1" target="O3S8YqVi3xzq-e0ClRUe-1">
          <mxGeometry width="50" height="50" relative="1" as="geometry">
            <mxPoint x="550" y="130" as="sourcePoint" />
            <mxPoint x="190" y="90" as="targetPoint" />
          </mxGeometry>
        </mxCell>
      </root>
    </mxGraphModel>
  </diagram>
</mxfile>
